<?xml version="1.0" standalone="no"?><!DOCTYPE svg PUBLIC "-//W3C//DTD SVG 1.1//EN" "http://www.w3.org/Graphics/SVG/1.1/DTD/svg11.dtd"><svg t="1554369710067" class="icon" style="" viewBox="0 0 1024 1024" version="1.1" xmlns="http://www.w3.org/2000/svg" p-id="12319" xmlns:xlink="http://www.w3.org/1999/xlink" width="200" height="200"><defs><style type="text/css">@font-face { font-family: uc-nexus-iconfont; src: url("chrome-extension://pogijhnlcfmcppgimcaccdkmbedjkmhi/res/font_9qmmi8b8jsxxbt9.woff") format("woff"), url("chrome-extension://pogijhnlcfmcppgimcaccdkmbedjkmhi/res/font_9qmmi8b8jsxxbt9.ttf") format("truetype"); }
</style></defs><path d="M512 960C265 960 64 759 64 512S265 64 512 64s448 201 448 448-201 448-448 448z m0-832c-211.7 0-384 172.3-384 384s172.2 384 384 384c211.7 0 384-172.2 384-384 0-211.7-172.3-384-384-384z m160.5 334.7c-8.4 17.3-20.4 39-47.8 64.8-27.5 25.9-45.7 21.3-54.7 32.2-9 11-15.8 24-20.4 39.2-4.6 15.2-3.1 8.4-3.1 16.4h-68.9c0-10.1-3.4-9 1.5-26.8 4.9-17.9 12.2-33.5 22-46.8 9.8-13.3 27.5-9.9 53.1-35.8s42-44.7 49.4-56.4c7.4-11.7 11-29.2 11-52.4s-8.4-43.8-25.3-61.6c-16.9-17.9-41.4-26.8-73.5-26.8-72.3 0-107.1 38.7-107.1 123h-68.9c1.1-38.4 3.1-64.1 11.3-84.1 8.2-20 19.5-37.9 37.5-53.6 18-15.7 38-27.3 60-34.8 22.1-7.5 45.3-11.2 69.8-11.2 49.5 0 89.9 16.8 122.8 45.4 30.6 26.5 43.3 66 43.3 111.5-0.2 21.1-3.5 40.4-12 57.8z m-126 290.5H454.6v-91.9h91.9v91.9z" p-id="12320" fill="#059ADC"></path></svg>