<?xml version="1.0" standalone="no"?><!DOCTYPE svg PUBLIC "-//W3C//DTD SVG 1.1//EN" "http://www.w3.org/Graphics/SVG/1.1/DTD/svg11.dtd"><svg t="1554369776583" class="icon" style="" viewBox="0 0 1024 1024" version="1.1" xmlns="http://www.w3.org/2000/svg" p-id="13108" xmlns:xlink="http://www.w3.org/1999/xlink" width="200" height="200"><defs><style type="text/css">@font-face { font-family: uc-nexus-iconfont; src: url("chrome-extension://pogijhnlcfmcppgimcaccdkmbedjkmhi/res/font_9qmmi8b8jsxxbt9.woff") format("woff"), url("chrome-extension://pogijhnlcfmcppgimcaccdkmbedjkmhi/res/font_9qmmi8b8jsxxbt9.ttf") format("truetype"); }
</style></defs><path d="M902.534578 567.689347l-335.818395 0 0 335.818395c0 30.906917-25.057699 55.964616-55.969733 55.964616-30.912034 0-55.969733-25.057699-55.969733-55.964616l0-335.818395-335.818395 0c-30.912034 0-55.969733-25.057699-55.969733-55.975872 0-30.912034 25.057699-55.964616 55.969733-55.964616l335.818395 0 0-335.818395c0-30.912034 25.057699-55.969733 55.969733-55.969733 30.912034 0 55.969733 25.057699 55.969733 55.969733l0 335.818395 335.818395 0c30.912034 0 55.969733 25.052582 55.969733 55.964616C958.50431 542.632671 933.446611 567.689347 902.534578 567.689347z" p-id="13109" fill="#929292"></path></svg>