<?xml version="1.0" standalone="no"?><!DOCTYPE svg PUBLIC "-//W3C//DTD SVG 1.1//EN" "http://www.w3.org/Graphics/SVG/1.1/DTD/svg11.dtd"><svg t="1554369340812" class="icon" style="" viewBox="0 0 1024 1024" version="1.1" xmlns="http://www.w3.org/2000/svg" p-id="7808" xmlns:xlink="http://www.w3.org/1999/xlink" width="200" height="200"><defs><style type="text/css">@font-face { font-family: uc-nexus-iconfont; src: url("chrome-extension://pogijhnlcfmcppgimcaccdkmbedjkmhi/res/font_9qmmi8b8jsxxbt9.woff") format("woff"), url("chrome-extension://pogijhnlcfmcppgimcaccdkmbedjkmhi/res/font_9qmmi8b8jsxxbt9.ttf") format("truetype"); }
</style></defs><path d="M728.64 511.168c0-8.128-3.84-15.36-9.792-20.032L361.472 133.696l0 0C356.864 129.088 350.464 126.272 343.424 126.272c-14.08 0-25.472 11.392-25.472 25.472 0 7.04 2.816 13.44 7.488 18.048l0 0 341.504 341.568-341.504 341.504 0 0c-4.608 4.608-7.488 11.008-7.488 18.048 0 14.08 11.392 25.472 25.472 25.472 7.04 0 13.376-2.88 18.048-7.488l0 0 360.64-360.64-0.128 0C726.144 523.776 728.64 517.76 728.64 511.168z" p-id="7809" fill="#101010"></path></svg>