<?xml version="1.0" standalone="no"?><!DOCTYPE svg PUBLIC "-//W3C//DTD SVG 1.1//EN" "http://www.w3.org/Graphics/SVG/1.1/DTD/svg11.dtd"><svg t="1554346377750" class="icon" style="" viewBox="0 0 1024 1024" version="1.1" xmlns="http://www.w3.org/2000/svg" p-id="2598" xmlns:xlink="http://www.w3.org/1999/xlink" width="200" height="200"><defs><style type="text/css">@font-face { font-family: uc-nexus-iconfont; src: url("chrome-extension://pogijhnlcfmcppgimcaccdkmbedjkmhi/res/font_9qmmi8b8jsxxbt9.woff") format("woff"), url("chrome-extension://pogijhnlcfmcppgimcaccdkmbedjkmhi/res/font_9qmmi8b8jsxxbt9.ttf") format("truetype"); }
</style></defs><path d="M328.704 550.1952l16.6912 26.0096-12.6976 8.192-9.0112-14.0288-92.0576 59.0848 9.4208 14.7456-12.6976 8.192-17.2032-26.7264 51.6096-33.0752c-3.3792-2.3552-6.4512-4.4032-9.216-5.9392l12.4928-11.1616c4.4032 3.3792 7.7824 6.2464 10.24 8.3968l52.4288-33.6896z m-6.144 132.4032L294.912 700.416l4.8128 7.4752-12.8 8.192-44.2368-68.8128 40.5504-26.0096L275.456 609.28l13.0048-8.2944 7.68 11.9808 40.96-26.3168 43.9296 68.4032-12.8 8.192-4.5056-7.0656-28.16 18.0224 17.5104 27.3408-13.0048 8.2944-17.5104-27.2384z m-31.5392-49.2544l-27.7504 17.8176 8.2944 13.0048 27.7504-17.8176-8.2944-13.0048z m-12.0832 42.1888l8.192 12.8 27.7504-17.8176-8.192-12.8-27.7504 17.8176z m61.44-55.6032l-8.2944-13.0048-28.16 18.0224 8.2944 13.0048 28.16-18.0224z m-12.4928 42.3936l28.16-18.0224-8.192-12.8-28.16 18.0224 8.192 12.8zM452.3008 637.2352l-12.5952 8.0896-40.7552-63.6928c3.6864 14.848 5.7344 29.0816 6.0416 42.496l-14.0288-10.0352c0.8192-18.7392-2.048-37.7856-8.6016-57.1392l-17.408 11.1616-8.0896-12.5952 17.92-11.4688-16.5888-25.9072 12.5952-8.0896 16.5888 25.8048 15.1552-9.728 8.0896 12.5952-15.1552 9.728 4.8128 7.4752c10.3424 2.8672 21.8112 6.5536 34.304 11.264l-0.1024 15.872c-9.216-4.8128-17.5104-9.0112-24.7808-12.4928l42.5984 66.6624z m-54.8864-124.6208l32.6656-20.992c-4.8128-3.3792-9.3184-6.144-13.6192-8.192l11.9808-10.752c4.4032 2.7648 9.216 6.3488 14.5408 10.752l30.1056-19.2512 7.68 11.9808-37.7856 24.2688c0.8192 15.9744 0.3072 28.3648-1.3312 37.0688 6.4512-4.5056 13.5168-9.8304 21.4016-15.872 0.2048-7.168 0-14.1312-0.512-20.8896l14.2336-1.1264c3.7888 36.2496-4.4032 67.8912-24.576 94.8224l-14.1312-6.2464c11.8784-15.1552 19.5584-31.6416 23.04-49.664-6.2464 4.5056-15.2576 10.9568-27.136 19.3536l-9.4208-8.9088c0.8192-0.9216 1.4336-1.8432 1.7408-2.6624 2.8672-6.2464 3.8912-18.6368 3.2768-37.1712l-24.2688 15.5648-7.8848-12.0832z m72.0896 113.2544l-14.336-6.5536c25.1904-30.9248 36.2496-66.4576 33.1776-106.3936l14.5408-1.3312c1.3312 16.1792 0.6144 31.4368-2.048 45.8752 15.36 2.3552 28.7744 5.3248 40.1408 9.1136l-3.4816 15.872c-11.1616-4.608-24.3712-8.6016-39.6288-11.776-5.632 19.6608-15.0528 38.0928-28.3648 55.1936zM490.496 434.9952c13.9264 1.2288 26.4192 3.3792 37.5808 6.656l-3.3792 15.0528c-10.1376-3.3792-22.6304-5.8368-37.6832-7.3728l3.4816-14.336z m158.6176 72.6016c-4.7104 2.9696-13.0048 8.192-24.8832 15.5648-8.8064 5.5296-16.6912 9.4208-23.552 11.776-6.4512 1.8432-13.4144 1.7408-20.6848-0.3072-3.3792-1.024-5.9392-1.1264-7.4752-0.1024-2.8672 1.8432-3.7888 11.264-2.9696 28.16l-15.36-2.7648c-0.3072-15.6672 1.4336-26.624 5.12-32.8704l-25.088-39.0144-18.432 11.8784-7.7824-12.0832 30.72-19.7632 33.4848 52.1216c1.1264 0.1024 2.2528 0.3072 3.3792 0.7168 5.5296 1.6384 10.6496 2.2528 15.2576 1.9456 5.632-0.7168 12.4928-3.4816 20.5824-8.2944 10.5472-6.5536 19.968-12.3904 28.0576-17.6128 4.5056-2.8672 11.264-7.3728 20.3776-13.4144 6.0416-3.9936 11.1616-7.68 15.5648-10.9568l5.12 14.9504-31.4368 20.0704z m-94.4128-94.5152l-26.624 17.1008-6.9632-10.8544 75.6736-48.64 5.9392 9.216c-3.4816 11.5712-8.192 22.9376-14.336 34.0992l1.2288 0.2048 27.7504-17.8176 39.3216 61.2352c5.2224 8.192 3.3792 15.1552-5.632 20.992l-10.6496 6.8608-9.728-9.1136 10.1376-5.7344c3.1744-2.048 3.6864-4.5056 1.7408-7.5776l-4.5056-7.0656-19.8656 12.6976 14.5408 22.6304-11.9808 7.68-14.5408-22.6304-19.456 12.4928 14.6432 22.8352-12.3904 7.9872-47.8208-74.4448 31.744-20.3776c-7.4752-0.1024-14.5408 0.1024-21.1968 0.6144l2.9696-12.3904z m31.5392-20.2752L555.3152 412.672c9.216-0.1024 16.1792 0.1024 20.992 0.3072 3.9936-6.4512 7.2704-13.1072 9.9328-20.1728z m0.1024 52.5312l-6.2464-9.6256-19.456 12.4928 6.144 9.6256 19.5584-12.4928z m-12.5952 23.2448l6.2464 9.6256 19.456-12.4928-6.2464-9.6256-19.456 12.4928z m44.4416-43.7248l-6.144-9.6256-19.8656 12.6976 6.144 9.6256 19.8656-12.6976z m-13.0048 23.552l6.2464 9.6256 19.8656-12.6976-6.2464-9.6256-19.8656 12.6976zM627.8144 346.8288c13.9264 1.2288 26.3168 3.3792 37.376 6.3488l-3.3792 15.6672c-10.6496-3.584-23.04-6.144-37.4784-7.68l3.4816-14.336z m162.0992 70.4512c-4.8128 3.072-13.4144 8.4992-25.8048 16.1792-9.3184 5.8368-17.5104 9.9328-24.3712 12.3904-6.7584 2.048-13.9264 2.048-21.4016 0.1024-3.3792-1.024-5.9392-1.024-7.68 0.1024-2.9696 1.8432-3.8912 11.5712-2.8672 28.8768l-15.36-2.7648c-0.3072-15.872 1.3312-27.136 5.12-33.5872l-24.9856-38.912-18.8416 11.9808-7.9872-12.3904 31.3344-20.0704 33.5872 52.224c1.024 0 2.2528 0.2048 3.584 0.6144 5.632 1.4336 10.8544 1.9456 15.6672 1.4336 5.5296-0.8192 12.6976-3.8912 21.2992-9.0112 10.9568-6.7584 20.6848-12.9024 29.2864-18.432l18.944-12.3904c6.3488-4.5056 11.1616-7.9872 14.5408-10.4448l5.3248 15.2576-29.3888 18.8416z m-34.9184-3.6864l-11.0592-10.8544c6.3488-3.2768 12.1856-6.656 17.5104-10.0352 3.4816-2.2528 4.3008-4.8128 2.4576-7.7824l-35.84-55.7056-49.152 31.5392-8.192-12.6976 49.2544-31.6416-13.6192-21.1968 13.2096-8.4992 13.6192 21.1968 18.432-11.8784 8.192 12.6976-18.432 11.8784 37.7856 58.88c5.632 8.704 3.7888 16.0768-5.5296 22.016l-18.6368 12.0832z m-52.4288-53.76c14.336 4.9152 26.0096 9.728 35.1232 14.4384l-6.0416 14.848c-9.3184-5.3248-21.0944-10.5472-35.2256-15.7696l6.144-13.5168z" p-id="2599" fill="#d81e06"></path><path d="M919.1424 396.6976l-126.2592-199.68c-10.4448-16.384-33.1776-21.8112-51.6096-11.3664L113.8688 581.7344c-16.384 11.3664-21.8112 33.9968-11.3664 51.6096l125.44 197.5296c11.3664 16.384 33.9968 21.8112 51.6096 11.3664l627.5072-397.6192c17.5104-8.9088 22.6304-31.5392 12.0832-47.9232z m-25.6 28.9792L266.1376 823.296c-5.0176 4.1984-12.5952 0.8192-16.384-4.1984L124.3136 621.1584c-4.1984-5.0176-2.1504-13.4144 2.9696-16.384l627.5072-397.6192c5.0176-4.1984 12.5952-0.8192 16.384 4.1984l126.2592 197.5296c4.096 5.4272 1.1264 13.4144-3.8912 16.7936zM346.624 275.5584l-2.048-26.8288 22.6304 14.6432 24.7808-11.3664-6.2464 26.0096 17.6128 20.5824-27.648 1.6384-12.5952 22.6304-10.4448-24.7808-25.6-5.0176c-1.024 0.9216 19.5584-17.5104 19.5584-17.5104z m142.2336-49.9712l11.3664-24.7808 12.5952 22.6304 26.8288 2.048-17.6128 19.7632 5.0176 26.8288-24.7808-11.3664-22.6304 14.6432 4.1984-26.8288-20.5824-17.6128c-1.7408 0.1024 25.6-5.3248 25.6-5.3248z m186.1632 530.2272l2.048 26.8288-22.6304-14.6432-24.6784 10.4448 6.2464-26.0096-17.6128-20.5824 26.8288-2.048 14.6432-22.6304 10.4448 24.7808 26.0096 5.0176-21.2992 18.8416z m-141.7216 48.64l-12.5952 24.7808-12.5952-22.6304-26.8288-2.048 19.7632-19.7632-5.0176-26.0096 24.7808 11.3664 22.6304-12.5952-4.1984 26.8288 19.7632 17.6128c-0.1024-2.56-25.7024 2.4576-25.7024 2.4576zM250.5728 387.072l-15.5648-21.8112 26.8288 0.8192 16.384-21.8112 7.168 26.0096 26.0096 9.216-21.8112 15.5648V421.888l-20.5824-16.384-26.0096 7.168c-1.6384 0.4096 7.5776-25.6 7.5776-25.6z m0 0" p-id="2600" fill="#d81e06"></path><path d="M329.0112 227.7376c103.6288-66.2528 230.7072-67.072 333.4144-15.5648l24.7808-15.5648c-30.208-16.384-63.3856-30.208-97.28-37.376-45.6704-10.4448-93.0816-11.3664-138.8544-4.1984-47.8208 7.168-93.0816 24.7808-134.656 51.6096-41.5744 26.8288-76.3904 59.5968-103.2192 99.84-26.8288 39.424-45.6704 81.8176-55.808 127.0784-7.168 35.2256-10.4448 69.2224-7.168 103.6288l24.7808-15.5648c-6.2464-114.7904 49.5616-228.4544 154.0096-293.888z m361.5744 569.5488c-103.6288 66.2528-229.888 67.072-332.1856 15.5648L333.6192 828.416c30.208 16.384 63.2832 30.208 97.28 37.376 45.6704 10.4448 93.0816 11.3664 138.8544 4.1984 47.8208-7.168 93.0816-26.0096 134.656-51.6096 41.472-26.0096 76.8-59.1872 103.6288-99.4304 26.8288-39.424 44.4416-81.8176 54.9888-127.488 7.168-35.2256 10.4448-68.4032 7.168-103.6288l-22.6304 15.5648c2.3552 114.7904-53.3504 228.4544-156.9792 293.888z m0 0" p-id="2601" fill="#d81e06"></path><path d="M404.8896 346.0096c28.0576-17.6128 61.2352-28.0576 93.0816-30.208l38.1952-24.7808c-50.7904-6.2464-100.2496 5.0176-144.6912 33.1776-43.6224 26.8288-74.6496 68.4032-92.2624 115.712l38.1952-24.7808c15.5648-26.8288 37.376-51.5072 67.4816-69.12z m211.0464 333.0048c-28.0576 17.6128-61.2352 28.0576-93.0816 30.208l-38.1952 24.7808c50.7904 6.2464 100.2496-5.0176 145.1008-33.1776 43.6224-26.8288 74.6496-68.4032 92.2624-115.8144l-38.1952 24.7808c-15.872 26.0096-39.8336 51.6096-67.8912 69.2224z m0 0" p-id="2602" fill="#d81e06"></path></svg>