<?xml version="1.0" standalone="no"?><!DOCTYPE svg PUBLIC "-//W3C//DTD SVG 1.1//EN" "http://www.w3.org/Graphics/SVG/1.1/DTD/svg11.dtd"><svg t="1554258084741" class="icon" style="" viewBox="0 0 1027 1024" version="1.1" xmlns="http://www.w3.org/2000/svg" p-id="2082" xmlns:xlink="http://www.w3.org/1999/xlink" width="120" height="120"><defs><style type="text/css">@font-face { font-family: uc-nexus-iconfont; src: url("chrome-extension://pogijhnlcfmcppgimcaccdkmbedjkmhi/res/font_9qmmi8b8jsxxbt9.woff") format("woff"), url("chrome-extension://pogijhnlcfmcppgimcaccdkmbedjkmhi/res/font_9qmmi8b8jsxxbt9.ttf") format("truetype"); }
</style></defs><path d="M334.465994 245.154054l18.895478-15.322004 24.760278 1.830073-9.474139-21.824392 9.474139-21.834353-24.760278 1.831069-18.895478-15.328977-5.821963 22.959096-21.165884 12.357226 21.165884 12.363203 5.821963 22.969059z m344.291802-26.044418l17.508726 17.601376 7.133001-22.694099 21.468737-10.28507-19.90665-14.840825-4.245928-23.957318-19.437427 13.540746-24.085831-4.53085 7.883161 23.20118-10.641719 21.165884 24.32393 0.798976z m-192.962607-27.631411l23.420351-6.623927 22.028618 11.447668-0.097631-23.801906 17.318447-16.330187-23.475143-8.085396-11.332106-21.5315-14.401488 18.801832-24.32393 3.016582 14.57284 19.704416-3.709958 23.402418zM230.902 333.635139l16.664921 16.832287 8.52274-22.782764 22.263728-10.983426-19.231207-14.004989-2.91397-23.633543-20.40875 14.135495-24.048971-3.625278 6.607988 22.739926-11.959731 21.388043 24.503252-0.065751z m463.626103 464.282618l-18.746044 15.287135-24.554059-1.830072 9.39743 21.784542-9.39743 21.776572 24.554059-1.823099 18.746044 15.278169 5.773147-22.907292 20.989552-12.337301-20.989552-12.328336-5.773147-22.900318zM544.608571 839.721523l-23.220108 6.610976-21.852285-11.423759 0.09763 23.737151-17.171005 16.298308 23.273905 8.061487 11.233479 21.484677 14.292899-18.770949 24.121696-2.995661-14.456281-19.674529 3.68007-23.327701z m-181.065638-26.847379l-17.336379-17.533632-7.133997 22.639307-21.315318 10.281084 19.725337 14.767104 4.155271 23.887582 19.32286-13.521818 23.893559 4.477054-7.77756-23.128455 10.589915-21.113084-24.123688-0.755142z" fill="#d81e06" p-id="2083"></path><path d="M511.998008 0C229.681619 0 0 229.680623 0 511.998008c0 282.3134 229.681619 512.000996 511.998008 512.000996 282.3134 0 512.000996-229.689589 512.000996-512.000996C1023.999004 229.680623 794.309415 0 511.998008 0z m0 990.003681c-263.576322 0-478.003681-214.439314-478.003682-478.005673 0-263.569349 214.429351-478.003681 478.003682-478.003682 263.578315 0 478.005674 214.435329 478.005673 478.003682 0 263.56636-214.427359 478.005674-478.005673 478.005673z" fill="#d81e06" p-id="2084"></path><path d="M511.998008 82.65713C275.26209 82.65713 82.65713 275.259101 82.65713 511.998008c0 236.735918 192.60496 429.340878 429.338885 429.340877 236.735918 0 429.340878-192.60496 429.340878-429.340877 0-236.738906-192.60496-429.340878-429.338885-429.340878z m0 839.24931c-226.026455 0-409.919391-183.882974-409.919392-409.916402 0-226.036417 183.892937-409.91441 409.919392-409.91441 226.027451 0 409.925368 183.887955 409.925368 409.920387a407.567294 407.567294 0 0 1-69.016761 227.373356l-8.054512-21.899108 10.317945-22.120271-24.238255 1.789227-17.672108-15.586004-6.828154 23.271912-21.25156 12.485739 20.019224 12.594329 4.540813 23.309769 19.198331-15.499333 23.809876 1.891839c-73.620336 109.8502-198.873234 182.29897-340.750207 182.29897z" fill="#d81e06" p-id="2085"></path><path d="M680.780141 306.066491a266.726399 266.726399 0 0 0-168.777152-60.332632c-127.662776 0-237.642486 90.880005-261.526083 216.098035l16.694807 3.18893c22.346415-117.221299 125.312672-202.288307 244.823306-202.288308 57.509318 0 113.624912 20.058077 158.004927 56.475233l10.780195-13.141258zM511.998008 761.262502a249.747666 249.747666 0 0 1-158.004927-56.471247l-10.77621 13.13827a266.740346 266.740346 0 0 0 168.78014 60.333627c127.660784 0 237.645475-90.885982 261.531064-216.105008l-16.695803-3.190922c-22.360363 117.217314-125.32363 202.295281-244.834264 202.29528z" fill="#d81e06" p-id="2086"></path><path d="M237.375497 518.725543l-2.624068 37.667423c-1.106811 10.349824-5.980363 17.026552-14.623647 20.038152l-14.764116 5.14652-12.792578-22.801692 3.78069-1.317015c5.360709-2.002421 8.355374-4.998081 8.98499-8.986983l1.969545-19.265079 30.069184-10.481326z m11.750522 83.545766c-0.474205 3.666123-1.336939 6.794283-2.587207 9.382486l9.903514-3.451934 31.125186 89.310944-30.07018 10.48033-29.118781-83.548755-7.92301 2.760551-12.793574-22.803684 3.061412-1.065965c5.360709-2.001424 8.355374-4.997085 8.983994-8.986983l0.811927-15.630835 30.072172-10.48033-1.465453 34.034175z m36.185034-101.86642l30.071176-10.48033 3.827512 10.983426 41.055598-14.307843 8.471933 24.308987-41.055598 14.306846 5.836906 16.746612 44.654974-15.563091 8.471932 24.30799-122.442535 42.673474-8.471933-24.308986 47.71539-16.629057-5.834914-16.746611-43.396737 15.12475-8.471932-24.308986 43.396737-15.123755-3.828509-10.983426z m59.837506 72.035335l30.071176-10.48033 3.577458 10.263152 14.404477-5.019998 8.471933 24.30799-14.404477 5.019999 14.370605 41.234919c1.342917 4.24294 1.161603 8.748884-0.539956 13.515841-1.9815 5.132572-5.671532 8.641291-11.074083 10.523168l-21.066261 7.343205-11.571201-21.613191 5.942506-2.070164c2.52046-0.87967 3.990894-2.066179 4.415288-3.558531 0.539956-1.535189 0.477194-3.263647-0.191276-5.18338L357.19795 607.012363l-75.807058 26.419997-8.471933-24.307991 75.807059-26.419996-3.577459-10.264149z m-10.534127 72.329223c3.039495 1.76731 6.238387 2.066179 9.60066 0.893617l4.681281-1.631823 8.471932 24.308987-12.964926 4.517899c-11.523382 4.0158-21.734731 2.727675-30.627071-3.865369l-24.729396-26.9211 32.231997-11.233479 13.335523 13.931268zM433.634625 498.791994l-30.071176 10.480331-3.26265-9.362562-4.266849-12.244652-4.205083-12.064334 72.025372-25.100989-3.827512-10.983426 30.07018-10.48033 3.828508 10.983426 41.23492-14.370605 14.945429-5.208286 15.125746-5.272045 11.734583 33.672544-30.071176 10.480331-3.26265-9.362561-113.259296 39.47259 3.261654 9.360568z m162.311625 77.515592l-48.616977 16.943865 4.266849 12.244652-30.070179 10.481326-4.266849-12.244652-66.983458 23.344637-4.266849-12.244652-4.205083-12.063338-30.624083-87.871393 14.945429-5.208286 15.125747-5.272045 36.913277-12.864306-3.326409-9.543875 30.071176-10.480331 3.326409 9.543875 36.193004-12.614253 14.945429-5.208286 15.124751-5.272044 32.946293 94.533177c3.976947 11.805315 0.144453 19.739284-11.498477 23.795929z m-109.31124-60.446202l-36.913277 12.86331 6.589059 18.907433 36.913278-12.864307-6.58906-18.906436z m15.060992 43.214427l-36.913277 12.864306 7.091159 20.346984 36.913277-12.863311-7.091159-20.347979z m21.598248-34.788321l36.192007-12.613257-6.588063-18.907432-36.193004 12.613257 6.58906 18.907432z m15.563091 44.65597l31.691044-11.044196c2.999646-1.046041 3.978939-3.068386 2.931903-6.07102l-5.522098-15.845024-36.192008 12.613257 7.091159 20.346983zM656.401418 414.693321l47.943526 137.569279-27.910355 9.727181-47.943526-137.569279-23.588713 8.220883-8.471932-24.307991 23.588713-8.220882-5.083757-14.585791 27.910354-9.727181 5.083758 14.585791 23.407399-8.157124 8.471932 24.30799-23.407399 8.157124z m-29.399717 19.93853l35.581319 102.095552c1.010176 3.282575 0.873693 6.763399-0.400484 10.438489-1.675657 4.083543-4.551771 6.83712-8.631329 8.258739l-5.222233 1.820111-12.431944-22.92921 1.439551-0.502099c1.918737-0.66847 3.052446-1.66968 3.397142-3.000642 0.503096-1.25226 0.507081-2.600158 0.004981-4.040706l-30.121984-86.430845 16.384981-5.709389z m54.019527-18.825742l39.158778 112.358705-16.38498 5.710385-39.160771-112.358705 16.386973-5.710385z m46.246948-0.568847l14.22416-4.958232 3.29951-10.236254 32.951275-11.48453-22.127245 80.206407c-2.752581 7.556398-8.269698 12.776638-16.552347 15.66371l-19.807027 6.902872-12.792578-22.802689 12.603294-4.39337c3.718923-1.296094 6.048107-3.117201 6.981574-5.461328l6.126809-19.502181-13.504882 4.706186-15.486382 5.396573-9.035798-25.928855 7.988762-24.592912-15.846021 5.522098-8.471932-24.307991 31.152084-10.855908-5.083757-14.585791 30.071176-10.48033 5.083757 14.58579 30.970771-10.793146 8.471932 24.307991-42.855784 14.935467-8.361351 28.156423z m72.901058 26.085263l-9.790939 33.904666 11.423759 10.759274c2.604143 2.455705 5.409524 3.163027 8.411162 2.116987l7.741697-2.697788 8.471932 24.30799-11.884017 4.141325c-12.286494 4.146306-22.54068 2.536399-30.761563-4.827727l-2.44375-2.378995-2.587207 9.382486c-2.668898 7.796489-8.204943 13.15919-16.606143 16.086112l-27.008767 9.412372-12.793575-22.802688 19.806031-6.902872c3.920162-1.502314 6.386825-3.304492 7.405968-5.407531l17.663142-53.610078 32.95227-11.483533z" fill="#d81e06" p-id="2087"></path></svg>