<?xml version="1.0" standalone="no"?><!DOCTYPE svg PUBLIC "-//W3C//DTD SVG 1.1//EN" "http://www.w3.org/Graphics/SVG/1.1/DTD/svg11.dtd"><svg t="1554369057526" class="icon" style="" viewBox="0 0 1024 1024" version="1.1" xmlns="http://www.w3.org/2000/svg" p-id="6228" xmlns:xlink="http://www.w3.org/1999/xlink" width="200" height="200"><defs><style type="text/css">@font-face { font-family: uc-nexus-iconfont; src: url("chrome-extension://pogijhnlcfmcppgimcaccdkmbedjkmhi/res/font_9qmmi8b8jsxxbt9.woff") format("woff"), url("chrome-extension://pogijhnlcfmcppgimcaccdkmbedjkmhi/res/font_9qmmi8b8jsxxbt9.ttf") format("truetype"); }
</style></defs><path d="M390.385 644.819C329.095 681.833 320 624.037 320 624.037L243.2 429.87c-29.576-92.25 25.57-41.592 25.57-41.592s47.284 38.761 83.215 62.373c35.87 23.643 76.8 6.927 76.8 6.927l502.151-251.03C838.294 81.649 685.236 0 512 0 229.195 0 0 217.299 0 485.346c0 154.202 75.896 291.418 194.108 380.386L172.785 998.46s-10.39 38.761 25.63 20.781c24.546-12.228 87.1-56.17 124.386-82.884A535.22 535.22 0 0 0 512 970.691c282.744 0 512-217.268 512-485.315a462.607 462.607 0 0 0-53.52-216.064C810.467 373.579 438.303 615.876 390.386 644.789z" fill="#24AF41" p-id="6229"></path></svg>