<?xml version="1.0" standalone="no"?><!DOCTYPE svg PUBLIC "-//W3C//DTD SVG 1.1//EN" "http://www.w3.org/Graphics/SVG/1.1/DTD/svg11.dtd"><svg t="1554343321695" class="icon" style="" viewBox="0 0 1024 1024" version="1.1" xmlns="http://www.w3.org/2000/svg" p-id="1991" xmlns:xlink="http://www.w3.org/1999/xlink" width="200" height="200"><defs><style type="text/css">@font-face { font-family: uc-nexus-iconfont; src: url("chrome-extension://pogijhnlcfmcppgimcaccdkmbedjkmhi/res/font_9qmmi8b8jsxxbt9.woff") format("woff"), url("chrome-extension://pogijhnlcfmcppgimcaccdkmbedjkmhi/res/font_9qmmi8b8jsxxbt9.ttf") format("truetype"); }
</style></defs><path d="M390.4 644.778667c-61.312 37.034667-70.4-20.736-70.4-20.736l-76.8-194.133334c-29.568-92.288 25.6-41.642667 25.6-41.642666s47.274667 38.784 83.2 62.378666c35.84 23.637333 76.8 6.954667 76.8 6.954667l502.186667-251.050667C838.229333 81.664 685.226667 0 512 0 229.162667 0 0 217.301333 0 485.333333c0 154.24 75.904 291.413333 194.133333 380.373334l-21.333333 132.778666s-10.410667 38.741333 25.6 20.736c24.576-12.202667 87.125333-56.149333 124.373333-82.858666 60.501333 22.784 124.586667 34.432 189.226667 34.346666 282.752 0 512-217.301333 512-485.333333 0-77.653333-19.328-150.997333-53.546667-216.064-160 104.234667-532.138667 346.581333-580.053333 375.466667z" p-id="1992" fill="#cdcdcd"></path></svg>