<?xml version="1.0" standalone="no"?><!DOCTYPE svg PUBLIC "-//W3C//DTD SVG 1.1//EN" "http://www.w3.org/Graphics/SVG/1.1/DTD/svg11.dtd"><svg t="1554369542265" class="icon" style="" viewBox="0 0 1024 1024" version="1.1" xmlns="http://www.w3.org/2000/svg" p-id="10485" xmlns:xlink="http://www.w3.org/1999/xlink" width="200" height="200"><defs><style type="text/css">@font-face { font-family: uc-nexus-iconfont; src: url("chrome-extension://pogijhnlcfmcppgimcaccdkmbedjkmhi/res/font_9qmmi8b8jsxxbt9.woff") format("woff"), url("chrome-extension://pogijhnlcfmcppgimcaccdkmbedjkmhi/res/font_9qmmi8b8jsxxbt9.ttf") format("truetype"); }
</style></defs><path d="M255.863 383.824l-63.96 63.96 319.802 383.764S703.587 383.824 959.43 191.942l-63.96-63.961S575.665 383.824 447.745 575.705L255.863 383.824z" fill="#ffffff" p-id="10486"></path><path d="M944.24 396.112c-4.57-17.061-22.107-27.186-39.168-22.613-16.33 4.375-26.297 20.63-23.11 36.977 8.804 32.262 13.508 66.216 13.508 101.27 0 211.946-171.818 383.763-383.764 383.763S127.942 723.692 127.942 511.745s171.817-383.763 383.763-383.763c35.213 0 69.316 4.748 101.709 13.63 16.363 3.218 32.65-6.753 37.03-23.1 4.571-17.061-5.553-34.597-22.613-39.169l0.292-0.032c-37.122-9.97-76.148-15.29-116.417-15.29-247.271 0-447.724 200.454-447.724 447.724S264.436 959.47 511.706 959.47 959.43 759.016 959.43 511.745c0-40.046-5.263-78.86-15.126-115.798l-0.064 0.165z" fill="#ffffff" p-id="10487"></path></svg>