<?xml version="1.0" standalone="no"?><!DOCTYPE svg PUBLIC "-//W3C//DTD SVG 1.1//EN" "http://www.w3.org/Graphics/SVG/1.1/DTD/svg11.dtd"><svg t="1554369151216" class="icon" style="" viewBox="0 0 1024 1024" version="1.1" xmlns="http://www.w3.org/2000/svg" p-id="7081" xmlns:xlink="http://www.w3.org/1999/xlink" width="200" height="200"><defs><style type="text/css">@font-face { font-family: uc-nexus-iconfont; src: url("chrome-extension://pogijhnlcfmcppgimcaccdkmbedjkmhi/res/font_9qmmi8b8jsxxbt9.woff") format("woff"), url("chrome-extension://pogijhnlcfmcppgimcaccdkmbedjkmhi/res/font_9qmmi8b8jsxxbt9.ttf") format("truetype"); }
</style></defs><path d="M67.954759 648.192c-8.686345 43.025655 17.178483 145.708138 180.382896 145.708138 100.440276 0 197.172966-60.910345 275.862069-163.133793-111.986759-54.536828-205.364966-81.090207-309.636414-81.090207-90.800552 0.017655-138.010483 55.790345-146.608551 98.515862z m0 0" fill="#08A1F8" p-id="7082"></path><path d="M265.886897 867.469241c-154.906483 0-257.553655-94.896552-245.618759-210.908689 8.103724-76.146759 60.574897-201.004138 288.167724-179.694345 119.613793 11.22869 174.945103 33.597793 272.719448 65.483034a769.588966 769.588966 0 0 0 62.375724-151.516689H209.619862v-42.548966h214.722207v-76.994207H162.480552v-47.580689h261.843862V112.940138a20.886069 20.886069 0 0 1 21.645241-17.425655h107.308138v128.58262h279.110621v47.58069H553.295448v76.994207h227.698759A874.919724 874.919724 0 0 1 688.551724 580.043034c49.222621 17.796414 228.934621 73.286621 317.263448 100.404966V162.233379a142.689103 142.689103 0 0 0-41.895724-100.952276 143.271724 143.271724 0 0 0-101.181793-41.807448H160.962207a143.307034 143.307034 0 0 0-101.181793 41.807448 142.600828 142.600828 0 0 0-41.91338 100.952276v700.769104c0 37.870345 15.077517 74.169379 41.91338 100.952276a143.201103 143.201103 0 0 0 101.181793 41.807448h702.057931c79.024552 0 143.077517-63.911724 143.077517-142.759724v-12.747035c-94.331586-40.730483-279.958069-121.626483-385.641931-171.979034-98.162759 118.289655-200.615724 189.192828-354.568827 189.192827z m0 0" fill="#08A1F8" p-id="7083"></path></svg>