<?xml version="1.0" standalone="no"?><!DOCTYPE svg PUBLIC "-//W3C//DTD SVG 1.1//EN" "http://www.w3.org/Graphics/SVG/1.1/DTD/svg11.dtd"><svg t="1554343548028" class="icon" style="" viewBox="0 0 1024 1024" version="1.1" xmlns="http://www.w3.org/2000/svg" p-id="3134" xmlns:xlink="http://www.w3.org/1999/xlink" width="200" height="200"><defs><style type="text/css">@font-face { font-family: uc-nexus-iconfont; src: url("chrome-extension://pogijhnlcfmcppgimcaccdkmbedjkmhi/res/font_9qmmi8b8jsxxbt9.woff") format("woff"), url("chrome-extension://pogijhnlcfmcppgimcaccdkmbedjkmhi/res/font_9qmmi8b8jsxxbt9.ttf") format("truetype"); }
</style></defs><path d="M1015.743323 714.374601V169.261885c0-88.931295-72.073912-160.833193-160.833194-160.833194H171.15404C82.394759 8.428691 10.320847 80.502604 10.320847 169.261885v683.756089C10.320847 941.949269 82.394759 1013.851167 171.15404 1013.851167H854.910129c82.394759 0 150.168318-61.92508 159.629095-141.739627-18.921552-8.428691-270.234168-119.549807-376.022846-171.842096-86.007055 107.852847-175.970435 172.530153-311.517554 172.530153S100.972283 786.276499 111.809172 680.487821c7.224593-69.493701 53.15236-183.023014 253.032756-163.585419 105.44465 10.148833 153.608601 30.618512 239.443642 60.032925 22.18982-42.143457 40.59533-88.587267 54.700487-138.127331H278.146817V399.760793h188.527465v-70.181757H236.691416v-43.003528h229.982866v-101.316311s2.064169-15.825298 18.921552-15.825298h94.263733v117.141609h245.120107v43.003528H579.859567V399.760793h199.880396c-18.40551 77.578364-46.271796 148.620192-81.19066 210.889299 53.324374 19.781623 280.210986 91.855535 317.19402 103.724509z" p-id="3135" fill="#cdcdcd"></path><path d="M153.780615 672.9192c-7.568621 39.219217 15.137242 132.794893 158.252982 132.794894 88.243239 0 173.046195-55.560558 242.195867-148.792206-98.392071-49.712078-180.442802-73.794053-271.954309-73.794053-79.642533 0-121.097934 50.744163-128.49454 89.791365zM1015.743323 853.017974c0 6.536536-0.516042 12.901058-1.204099 19.265581 0.688056 0.344028 1.204099 0.516042 1.204099 0.516042v-19.781623z" p-id="3136" fill="#cdcdcd"></path></svg>