<?xml version="1.0" standalone="no"?><!DOCTYPE svg PUBLIC "-//W3C//DTD SVG 1.1//EN" "http://www.w3.org/Graphics/SVG/1.1/DTD/svg11.dtd"><svg t="1554189090985" class="icon" style="" viewBox="0 0 1024 1024" version="1.1" xmlns="http://www.w3.org/2000/svg" p-id="24506" xmlns:xlink="http://www.w3.org/1999/xlink" width="200" height="200"><defs><style type="text/css">@font-face { font-family: uc-nexus-iconfont; src: url("chrome-extension://pogijhnlcfmcppgimcaccdkmbedjkmhi/res/font_9qmmi8b8jsxxbt9.woff") format("woff"), url("chrome-extension://pogijhnlcfmcppgimcaccdkmbedjkmhi/res/font_9qmmi8b8jsxxbt9.ttf") format("truetype"); }
</style></defs><path d="M257.848889 726.528h108.8v-201.500444a54.471111 54.471111 0 0 0-54.414222-54.414223 54.471111 54.471111 0 0 0-54.385778 54.414223v201.500444z m155.591111 227.669333H947.768889v-483.555555H396.686222c10.126222 15.644444 16.042667 34.304 16.042667 54.385778l0.711111 429.169777z m-256.085333-227.669333a54.471111 54.471111 0 0 0 54.414222-54.385778v-147.114666a100.408889 100.408889 0 0 1 95.658667-100.238223c1.592889-0.085333 340.110222-0.256 340.110222-0.256V74.524444H102.968889v597.617778c0 29.980444 24.405333 54.385778 54.385778 54.385778zM648.561778 28.444444c24.860444 0 45.056 20.195556 45.056 45.056v351.032889h255.260444c24.832 0 44.970667 20.138667 44.970667 44.942223v485.831111a44.942222 44.942222 0 0 1-44.942222 44.942222H412.302222a44.942222 44.942222 0 0 1-44.942222-44.942222v-182.698667H150.215111v-0.341333A100.408889 100.408889 0 0 1 56.888889 672.142222V73.500444C56.888889 48.64 77.084444 28.444444 101.944889 28.444444h546.616889zM193.991111 178.972444h129.450667V132.977778h-129.422222v45.994666z m0 96H554.097778V228.977778H194.048v45.994666z m0 96H554.097778v-45.994666H194.048v45.994666z m624.981333 167.537778H767.431111l-75.576889 150.442667h-12.316444l-75.548445-150.471111h-51.541333l75.605333 150.471111h-53.048889v46.023111H662.755556v45.994667h-87.694223v45.994666H662.755556v56.120889h45.994666v-56.120889H796.444444v-45.994666h-87.694222v-45.994667H796.444444V688.924444h-53.048888l75.633777-150.471111z" fill="#3196FA" p-id="24507"></path></svg>