<?xml version="1.0" standalone="no"?><!DOCTYPE svg PUBLIC "-//W3C//DTD SVG 1.1//EN" "http://www.w3.org/Graphics/SVG/1.1/DTD/svg11.dtd"><svg t="1554187847082" class="icon" style="" viewBox="0 0 1024 1024" version="1.1" xmlns="http://www.w3.org/2000/svg" p-id="5336" xmlns:xlink="http://www.w3.org/1999/xlink" width="200" height="200"><defs><style type="text/css">@font-face { font-family: uc-nexus-iconfont; src: url("chrome-extension://pogijhnlcfmcppgimcaccdkmbedjkmhi/res/font_9qmmi8b8jsxxbt9.woff") format("woff"), url("chrome-extension://pogijhnlcfmcppgimcaccdkmbedjkmhi/res/font_9qmmi8b8jsxxbt9.ttf") format("truetype"); }
</style></defs><path d="M889.3 112.9H127.7c-36.9 0-66.9 30-66.9 66.9V678c0 36.9 30 66.9 66.9 66.9h761.7c36.9 0 66.9-30 66.9-66.9V179.8c-0.1-36.9-30.1-66.9-67-66.9zM913.1 678c0 13.1-10.7 23.7-23.7 23.7H127.7c-13.1 0-23.7-10.7-23.7-23.7V179.8c0-13.1 10.7-23.7 23.7-23.7h761.7c13.1 0 23.7 10.7 23.7 23.7V678z" fill="#009bd2" p-id="5337"></path><path d="M596.7 246.6l-57.9 106.8c-15.4 28.9-24.9 48.2-28.4 57.7h-1c-10.2-23.2-38.9-78-86.3-164.5h-54.5L470 420.7h-83.1v38.5h97.4v53h-97.4v38.9h97.4v77.1h48.3v-77.1h94v-38.9h-94v-53h94v-38.5H546l102.4-174.1h-51.7z m-60 522.3h-56.3V855H343.1v51h330.8v-51H536.7v-86.1z" fill="#009bd2" p-id="5338"></path></svg>