<?xml version="1.0" standalone="no"?><!DOCTYPE svg PUBLIC "-//W3C//DTD SVG 1.1//EN" "http://www.w3.org/Graphics/SVG/1.1/DTD/svg11.dtd"><svg t="1554190669527" class="icon" style="" viewBox="0 0 1024 1024" version="1.1" xmlns="http://www.w3.org/2000/svg" p-id="25945" xmlns:xlink="http://www.w3.org/1999/xlink" width="200" height="200"><defs><style type="text/css">@font-face { font-family: uc-nexus-iconfont; src: url("chrome-extension://pogijhnlcfmcppgimcaccdkmbedjkmhi/res/font_9qmmi8b8jsxxbt9.woff") format("woff"), url("chrome-extension://pogijhnlcfmcppgimcaccdkmbedjkmhi/res/font_9qmmi8b8jsxxbt9.ttf") format("truetype"); }
</style></defs><path d="M1010.395429 740.425143L880.64 611.84a256.146286 256.146286 0 0 0-29.622857-330.825143 262.875429 262.875429 0 0 0-368.859429 0C432.713143 329.874286 405.504 394.971429 405.504 464.237714s27.209143 134.363429 76.580571 183.296a261.851429 261.851429 0 0 0 333.531429 28.598857l130.56 129.316572a45.568 45.568 0 0 0 64.585143-0.365714 45.787429 45.787429 0 0 0-0.365714-64.658286z m-463.945143-157.988572c-31.963429-31.524571-49.517714-73.508571-49.517715-118.198857s17.554286-86.601143 49.517715-118.272c33.060571-32.768 76.580571-49.152 120.027428-49.152s87.04 16.384 120.173715 49.152c31.890286 31.670857 49.517714 73.654857 49.517714 118.272s-17.554286 86.674286-49.517714 118.272l-0.365715 0.292572a171.300571 171.300571 0 0 1-239.908571-0.292572zM45.714286 360.740571h313.929143a45.714286 45.714286 0 1 0 0-91.428571H45.714286a45.714286 45.714286 0 1 0 0 91.428571zM45.714286 525.312h240.054857a45.714286 45.714286 0 1 0 0-91.428571H45.714286a45.714286 45.714286 0 1 0 0 91.428571zM45.714286 671.670857h313.929143a45.714286 45.714286 0 0 0 0-91.428571H45.714286a45.714286 45.714286 0 0 0 0 91.428571zM433.517714 726.528H45.714286a45.714286 45.714286 0 0 0 0 91.428571h387.803428a45.714286 45.714286 0 0 0 0-91.428571z" fill="#333333" p-id="25946"></path></svg>