<?xml version="1.0" standalone="no"?><!DOCTYPE svg PUBLIC "-//W3C//DTD SVG 1.1//EN" "http://www.w3.org/Graphics/SVG/1.1/DTD/svg11.dtd"><svg t="1554368620903" class="icon" style="" viewBox="0 0 1024 1024" version="1.1" xmlns="http://www.w3.org/2000/svg" p-id="5310" xmlns:xlink="http://www.w3.org/1999/xlink" width="200" height="200"><defs><style type="text/css">@font-face { font-family: uc-nexus-iconfont; src: url("chrome-extension://pogijhnlcfmcppgimcaccdkmbedjkmhi/res/font_9qmmi8b8jsxxbt9.woff") format("woff"), url("chrome-extension://pogijhnlcfmcppgimcaccdkmbedjkmhi/res/font_9qmmi8b8jsxxbt9.ttf") format("truetype"); }
</style></defs><path d="M512 1024C229.2224 1024 0 794.7776 0 512S229.2224 0 512 0s512 229.2224 512 512-229.2224 512-512 512z m-0.1536-280.6784c30.2592 0 54.784-23.7568 54.784-53.0944 0-29.2864-24.5248-53.0432-54.784-53.0432-30.3104 0-54.8352 23.7568-54.8352 53.0432 0 29.3376 24.576 53.0944 54.784 53.0944z m-17.92-459.9808c-0.6656 0-1.3312 0-2.048 0.1024a35.84 35.84 0 0 0-34.4064 37.3248l14.5408 247.6544a36.0448 36.0448 0 0 0 36.5056 33.3824h6.656a36.0448 36.0448 0 0 0 36.4544-33.3824l14.592-247.6544 0.0512-2.048a35.9936 35.9936 0 0 0-36.5568-35.328h-35.7376z" fill="#E51C23" p-id="5311"></path></svg>